<svg xmlns="http://www.w3.org/2000/svg" xmlns:xlink="http://www.w3.org/1999/xlink" aria-hidden="true" role="img" class="iconify iconify--logos" width="31.88" height="32" preserveAspectRatio="xMidYMid meet" viewBox="0 0 256 257">
  <defs>
    <linearGradient id="IconifyId1813088fe1fbc01fb466" x1="-.828%" x2="57.636%" y1="7.652%" y2="78.411%">
      <stop offset="0%" stop-color="#41D1FF"></stop>
      <stop offset="100%" stop-color="#BD34FE"></stop>
    </linearGradient>
    <linearGradient id="IconifyId1813088fe1fbc01fb467" x1="43.376%" x2="50.316%" y1="2.242%" y2="89.033%">
      <stop offset="0%" stop-color="#FFEA83"></stop>
      <stop offset="8.333%" stop-color="#FFDD35"></stop>
      <stop offset="100%" stop-color="#FFA800"></stop>
    </linearGradient>
  </defs>
  <path d="M255.153 63.974c-2.429-7.803-11.166-10.942-18.494-7.44l-64.4 31.433c-4.085 1.99-8.634.15-11.11-4.032l-42.28-70.863c-3.5-5.86-11.63-7.21-17.21-.936l-99.342 111.42c-5.83 6.53-4.99 16.8.93 22.25l42.28 38.283c4.085 3.7 9.92 3.7 14.004 0l42.28-38.282c4.085-3.7 9.92-3.7 14.005 0l42.28 38.282c4.085 3.7 9.92 3.7 14.004 0l42.28-38.282c4.085-3.7 9.92-3.7 14.005 0l24.325-22.02c6.327-5.726 7.28-15.62.91-22.253z" fill="url(#IconifyId1813088fe1fbc01fb466)"></path>
  <path d="M152.44 158.825c-4.085-3.7-9.92-3.7-14.005 0l-42.28 38.282c-4.085 3.7-9.92 3.7-14.004 0L57.826 158.825c-4.085-3.7-9.92-3.7-14.005 0L.86 197.107c-5.58 5.05-6.52 14.04-.93 20.31l99.342 111.42c5.83 6.53 15.87 4.99 20.31-1.86l133.588-158.824c4.62-5.48 2.43-14.04-3.66-17.21l-97.05-41.11z" fill="url(#IconifyId1813088fe1fbc01fb467)"></path>
</svg>
